<?xml version="1.0" encoding="utf-8"?>
<!-- Generator: Adobe Illustrator 16.0.0, SVG Export Plug-In . SVG Version: 6.00 Build 0)  -->
<!DOCTYPE svg PUBLIC "-//W3C//DTD SVG 1.1//EN" "http://www.w3.org/Graphics/SVG/1.1/DTD/svg11.dtd">
<svg version="1.1" id="Capa_1" xmlns="http://www.w3.org/2000/svg" xmlns:xlink="http://www.w3.org/1999/xlink" x="0px" y="0px"
	 width="144px" height="144px" viewBox="0 0 144 144" enable-background="new 0 0 144 144" xml:space="preserve">
<g>
	<path fill="#0D0D0D" d="M102.478,64.38V41.522c0-16.801-13.669-30.477-30.477-30.477c-16.806,0-30.478,13.676-30.478,30.477V64.38
		c-8.415,0-15.238,6.823-15.238,15.238v38.097c0,8.416,6.823,15.24,15.238,15.24h60.955c8.415,0,15.238-6.824,15.238-15.24V79.619
		C117.716,71.204,110.893,64.38,102.478,64.38L102.478,64.38z M75.81,101.309v12.598c0,2.106-1.704,3.809-3.809,3.809
		c-2.106,0-3.81-1.703-3.81-3.809v-12.598c-2.235-1.325-3.81-3.66-3.81-6.451c0-4.212,3.411-7.62,7.62-7.62
		c4.208,0,7.619,3.408,7.619,7.62C79.62,97.648,78.046,99.984,75.81,101.309L75.81,101.309z M87.239,64.38H56.761V41.522
		c0-8.408,6.835-15.238,15.24-15.238c8.4,0,15.239,6.832,15.239,15.238V64.38z M87.239,64.38"/>
</g>
</svg>
