<?xml version="1.0" encoding="utf-8"?><!DOCTYPE svg PUBLIC "-//W3C//DTD SVG 1.1//EN" "http://www.w3.org/Graphics/SVG/1.1/DTD/svg11.dtd"><svg xmlns="http://www.w3.org/2000/svg" width="32" height="32" viewBox="0 0 144 144"><path fill="#0D0D0D" d="M102.478 64.38V41.522c0-16.801-13.669-30.477-30.477-30.477-16.806 0-30.478 13.676-30.478 30.477V64.38c-8.415 0-15.238 6.823-15.238 15.238v38.097c0 8.416 6.823 15.24 15.238 15.24h60.955c8.415 0 15.238-6.824 15.238-15.24V79.619c0-8.415-6.823-15.239-15.238-15.239zM75.81 101.309v12.598a3.807 3.807 0 0 1-3.809 3.809 3.807 3.807 0 0 1-3.81-3.809v-12.598c-2.235-1.325-3.81-3.66-3.81-6.451a7.617 7.617 0 0 1 7.62-7.62 7.617 7.617 0 0 1 7.619 7.62c0 2.79-1.574 5.126-3.81 6.451zM87.239 64.38H56.761V41.522c0-8.408 6.835-15.238 15.24-15.238 8.4 0 15.239 6.832 15.239 15.238V64.38zm0 0"/></svg>